<?xml version="1.0" encoding="iso-8859-1"?>
<!-- Generator: Adobe Illustrator 19.0.0, SVG Export Plug-In . SVG Version: 6.00 Build 0)  -->
<svg version="1.1" id="Layer_1" xmlns="http://www.w3.org/2000/svg" xmlns:xlink="http://www.w3.org/1999/xlink" x="0px" y="0px"
	 viewBox="0 0 266.301 266.301" style="enable-background:new 0 0 266.301 266.301;" xml:space="preserve">
<g>
	<path style="fill:#1D1D1B;" d="M265.015,115.259c0.12,33.435,0.08,66.869,0.04,100.303c0,0.603-0.241,1.045-0.563,1.366
		c1.005,5.104,0.201,11.734-5.184,13.985c-3.255,1.366-7.394,0.723-10.77,0.482c-2.893-0.161-5.706-0.603-8.519-1.206
		c-0.281,0.683-0.884,1.246-1.808,1.246c-73.218,0.844-146.879,2.532-220.057-0.643c-0.844-0.04-1.286-0.683-1.366-1.326
		c-17.119,0.924-14.507-30.501-15.15-40.829c-2.291-37.975-2.572-76.554,1.728-114.368c0.04-0.321,0.161-0.563,0.322-0.804
		C4.09,65.83,9.876,61.128,18.195,58.998c1.607-0.442,3.335-0.764,5.023-1.045c0-0.08-0.04-0.08-0.08-0.161
		c-0.201-2.25-0.442-6.349,0.844-8.64c-0.442-0.563-0.12-1.648,0.764-1.648c7.997,0.201,16.034,0.643,24.071,0.442
		c7.595-0.241,15.15-1.406,22.504,0.884c0.201,0.08,0.402,0.201,0.522,0.321c0.884,0.12,1.728,0.884,1.527,2.009
		c-0.402,2.572-0.683,5.224-1.125,7.796c4.179,0.321,8.278,0.603,12.096,0.723c2.733,0.08,5.465,0.161,8.238,0.241
		c2.612-8.399,6.952-17.119,11.332-24.674c0.362-0.643,1.085-0.804,1.728-0.683c0.121-0.08,0.241-0.201,0.442-0.241
		c19.972-2.451,39.904,2.813,59.756,0.764c0.683-0.08,1.165,0.201,1.447,0.603c0.121,0.04,0.281,0.08,0.402,0.201
		c6.269,7.474,10.931,16.597,15.753,25.036c0.322,0.563,0.322,1.125,0.161,1.607l28.532,0.804
		c-0.884-5.144,2.893-10.529,8.118-11.654c6.872-1.447,13.101,4.983,12.739,11.614c0,0.241-0.08,0.442-0.161,0.643l18.927,0.522
		c1.045,0.04,1.728,0.643,2.009,1.407C271.967,71.175,264.974,100.752,265.015,115.259z M261.036,215.964
		c-0.04-0.121-0.08-0.241-0.08-0.402c0-18.526-0.04-37.051-0.04-55.617c-20.254-0.121-40.346-0.322-60.6,0.201
		c-0.924,27.728-20.012,54.09-55.135,50.393c-0.121,0.121-0.241,0.201-0.442,0.201c-29.336-2.25-44.164-24.795-46.093-48.785
		c-31.465-0.402-62.85,0.201-94.316,0.482c0.201,7.475,0.442,14.949,0.844,22.383c0.281,5.104,0.603,10.167,1.005,15.23
		c0.442,6.229,4.139,26.081,12.658,26.884c0.522,0.08,0.884,0.482,1.045,0.964c72.173-1.447,144.467,0.201,216.681-0.563
		c0.161-0.12,0.362-0.241,0.643-0.241c4.742,0.08,9.444,0.522,14.186,0.603c2.893,0.08,6.47,0.643,8.439-2.411
		c1.648-2.532,0.924-5.907,1.085-8.72C260.916,216.366,260.956,216.165,261.036,215.964z M260.795,111.401
		c0-6.269,0.603-13.06-0.04-19.289c-0.603-5.747-2.411-20.575-8.881-23.067c-0.04,0-0.08,0.04-0.121,0.04
		c-41.15-1.206-82.34-2.411-123.491-3.577c-18.164-0.563-36.368-1.045-54.532-1.607C61.273,63.54,12.086,55.503,6.5,74.712
		c-1.125,23.991-2.572,47.942-2.451,71.972c0,0.643,0.04,1.326,0.04,1.969c31.586-0.482,63.132,0.402,94.677,1.889
		c2.451-27.889,21.981-53.768,56.3-47.861c27.527,4.742,42.034,25.478,44.807,47.54c0.08-0.12,0.201-0.241,0.402-0.281
		c19.972-2.773,40.427-3.014,60.52-1.527c0.04,0,0.08,0,0.08,0.04c0-0.804,0-1.567,0-2.331
		C260.875,134.548,260.835,122.975,260.795,111.401z M260.916,156.892c0-1.889,0-3.818,0-5.706c-0.04,0-0.08,0-0.121,0
		c-20.173-0.804-40.105-0.241-60.238,0.764c-0.241,0-0.362-0.121-0.522-0.201c0.201,1.969,0.321,3.978,0.362,5.948
		C220.328,155.606,240.903,155.123,260.916,156.892z M229.37,63.821c-0.04-0.161-0.08-0.321-0.08-0.522
		c0.241-4.661-4.059-9.323-8.961-7.997c-3.697,0.964-5.546,4.541-5.747,8.118L229.37,63.821z M192.721,179.958
		c3.496-8.72,4.661-18.566,3.496-28.21c-0.08,0-0.12,0.04-0.201,0.04c-4.26,0.362-8.479,0.723-12.699,1.246
		c0.322,2.532,0.362,5.104,0.161,7.756c-0.402,4.541-1.607,8.76-3.456,12.538c2.09,0.964,4.139,1.969,6.189,2.974
		C188.38,177.346,190.872,178.31,192.721,179.958z M195.694,148.653c-1.366-7.796-4.42-15.351-9.082-21.901
		c-0.884,1.527-2.371,2.974-3.335,3.938c-1.969,1.969-4.22,3.858-6.751,5.023c0,0,0,0-0.04,0c3.295,4.42,5.546,9.645,6.51,15.271
		C187.054,149.658,191.435,148.814,195.694,148.653z M191.716,182.249c-2.492-0.563-4.782-2.21-6.952-3.456
		c-1.969-1.125-3.938-2.29-5.867-3.456c-3.215,5.666-7.917,10.288-13.543,13.623c1.447,2.21,2.693,4.541,3.818,6.952
		c1.085,2.25,2.411,4.702,3.094,7.153C181.147,198.564,187.657,191.09,191.716,182.249z M183.478,125.788
		c0.402-0.603,0.723-1.165,1.165-1.688c-5.264-6.389-12.216-11.614-21.057-14.869c-0.161,2.291-0.964,4.581-1.567,6.791
		c-0.683,2.532-1.366,5.063-2.09,7.555c6.108,2.09,11.332,5.747,15.311,10.529c0,0,0,0,0.04-0.04
		c2.009-1.648,4.018-3.175,5.706-5.144C181.87,127.918,182.714,126.873,183.478,125.788z M145.261,191.331
		c18.325-1.005,35.404-14.909,34.841-34.359c-0.482-17.4-14.668-31.425-32.068-31.144c-18.325,0.281-31.023,17.079-29.215,34.68
		c1.527,15.23,12.9,25.237,26.281,30.863C145.141,191.371,145.181,191.331,145.261,191.331z M95.029,60.004
		c28.25,0.804,56.501,1.607,84.752,2.411c-4.662-7.635-9.765-15.471-13.221-23.75c-0.201,0.121-0.442,0.201-0.723,0.241
		c-9.966,1.206-19.811-0.442-29.777-1.005c-9.805-0.563-19.651-0.322-29.456-1.005C103.548,44.653,99.65,52.971,95.029,60.004z
		 M169.453,204.431c-1.406-2.532-2.291-5.546-3.416-8.198c-0.924-2.049-1.849-4.139-2.693-6.229
		c-5.465,2.853-11.654,4.541-18.083,4.862c-0.201,0-0.362-0.08-0.522-0.12c0.201,4.099-0.603,8.6-1.527,12.377
		C153.339,208.651,162.099,207.485,169.453,204.431z M159.206,115.259c0.482-2.25,0.844-4.742,1.849-6.872
		c-2.17-0.683-4.42-1.286-6.791-1.728c-9.604-1.768-18.405-0.402-25.96,3.175c0,0,0.04,0,0.04,0.04
		c1.688,2.411,2.692,5.305,4.26,7.796c1.406,2.17,2.974,4.179,4.501,6.229c4.42-1.688,9.283-2.492,14.427-2.09
		c2.17,0.201,4.3,0.603,6.309,1.125C158.241,120.363,158.683,117.831,159.206,115.259z M141.805,199.127
		c0.08-2.17,0-4.38,0.241-6.55c-1.286-0.161-2.572-0.683-3.697-1.447c-3.938-1.688-7.515-4.059-10.649-6.872
		c-3.496,3.657-7.033,7.274-10.77,10.689c6.389,6.028,14.386,10.529,23.428,13.02c0.161-0.362,0.442-0.643,0.804-0.804
		C141.403,204.471,141.685,201.819,141.805,199.127z M135.054,124.743c-4.059-3.376-8.077-8.801-8.961-13.743
		c-9.283,5.104-16.516,13.663-20.856,23.87c2.09,0.804,4.179,1.648,6.269,2.532c2.411,1.045,5.063,1.969,7.354,3.335
		C122.355,133.664,128.022,127.998,135.054,124.743z M115.685,193.661c3.134-3.938,6.47-7.756,9.886-11.453
		c-3.416-3.577-6.189-7.756-7.997-12.337c-2.331,1.085-5.104,1.487-7.595,1.849c-2.331,0.322-4.742,0.683-7.113,0.442
		C105.317,180.48,109.777,187.714,115.685,193.661z M115.162,153.476c0.362-3.657,1.286-7.073,2.612-10.328
		c-2.21-0.804-4.3-2.009-6.43-3.054c-2.291-1.085-4.621-2.17-6.912-3.255c-1.768,4.621-2.934,9.604-3.416,14.668
		c0.362,0.683,0.321,1.607-0.161,2.17c-0.08,1.286-0.161,2.612-0.12,3.898c0,0.563,0.08,1.085,0.12,1.648
		c0.121,0.362,0.121,0.764,0.08,1.165c0.201,3.456,0.643,6.832,1.447,10.046c2.612-0.723,5.385-0.884,8.037-1.447
		c2.09-0.442,4.179-1.165,6.269-1.447C115.283,163.08,114.68,158.338,115.162,153.476z M98.485,157.977
		c-0.04-1.286,0.04-2.532,0.08-3.818c-31.465-1.246-62.971-2.049-94.436-3.054c0.04,2.974,0.08,5.907,0.161,8.881
		C35.595,157.615,67.1,157.374,98.485,157.977z M69.953,58.758c-0.402-2.25-0.321-4.822,0.04-7.113
		c-14.587-1.005-28.893,0.683-43.4-1.808c0,0.964-0.362,1.849-0.563,2.893c-0.322,1.607-0.442,3.255-0.563,4.862
		C39.292,55.744,55.326,57.553,69.953,58.758z"/>
	<path style="fill:#33B4AE;" d="M260.956,215.563c0,0.161,0.04,0.281,0.08,0.402c-0.08,0.201-0.121,0.402-0.121,0.603
		c-0.161,2.813,0.563,6.189-1.085,8.72c-1.969,3.054-5.546,2.492-8.439,2.411c-4.742-0.08-9.444-0.522-14.186-0.603
		c-0.281,0-0.482,0.121-0.643,0.241c-72.214,0.764-144.508-0.884-216.681,0.563c-0.161-0.482-0.522-0.884-1.045-0.964
		c-8.519-0.804-12.216-20.656-12.658-26.884c-0.402-5.063-0.723-10.127-1.005-15.23c-0.402-7.434-0.643-14.909-0.844-22.383
		c31.465-0.281,62.85-0.884,94.316-0.482c1.929,23.991,16.757,46.535,46.093,48.785c0.201,0,0.321-0.08,0.442-0.201
		c35.122,3.697,54.21-22.665,55.135-50.393c20.254-0.522,40.346-0.322,60.6-0.201C260.916,178.511,260.956,197.037,260.956,215.563z
		 M206.343,182.369c0.08-0.844-1.366-1.045-1.527-0.201c-0.763,4.38-2.21,8.359-4.541,12.136c-0.281,0.482,0.442,1.045,0.804,0.643
		C204.133,191.331,205.901,187.071,206.343,182.369z M194.248,196.193c3.094-2.612,5.706-7.314,5.023-11.493
		c-0.08-0.603-1.085-0.563-1.206,0c-0.362,1.808-0.482,3.617-1.085,5.345c-0.764,2.09-1.889,3.858-3.335,5.546
		C193.323,196.032,193.846,196.555,194.248,196.193z M107.929,196.474c0.683,0.201,1.165-0.884,0.482-1.165
		c-3.094-1.326-5.505-3.737-6.51-6.992c-0.281-0.844-1.567-0.482-1.326,0.362C101.62,192.416,104.232,195.309,107.929,196.474z
		 M68.949,195.148c0.482,0.281,1.005-0.362,0.603-0.764c-1.085-1.085-2.009-2.17-2.451-3.657c-0.201-0.643-1.206-0.402-1.045,0.281
		C66.497,192.777,67.341,194.264,68.949,195.148z M25.91,217.532c0.723,0.482,1.326-0.603,0.683-1.125
		c-2.049-1.527-3.617-3.617-4.42-6.028c-0.281-0.764-1.487-0.482-1.246,0.322C21.771,213.634,23.378,215.884,25.91,217.532z
		 M19.36,218.054c0.764,0.321,1.406-0.683,0.683-1.125c-2.652-1.648-3.737-4.179-4.42-7.073c-0.121-0.362-0.683-0.362-0.763,0
		C13.854,213.312,16.305,216.688,19.36,218.054z"/>
	<path style="fill:#F49AC7;" d="M260.755,92.112c0.643,6.229,0.04,13.02,0.04,19.289c0.04,11.573,0.08,23.147,0.08,34.72
		c0,0.764,0,1.527,0,2.331c0-0.04-0.04-0.04-0.08-0.04c-20.093-1.487-40.547-1.246-60.52,1.527c-0.201,0.04-0.322,0.161-0.402,0.281
		c-2.773-22.062-17.28-42.798-44.807-47.54c-34.319-5.907-53.849,19.972-56.3,47.861c-31.546-1.487-63.092-2.371-94.677-1.889
		c0-0.643-0.04-1.326-0.04-1.969c-0.121-24.03,1.326-47.98,2.451-71.971c5.586-19.209,54.773-11.172,67.231-10.81
		c18.164,0.563,36.368,1.045,54.532,1.607c41.15,1.165,82.34,2.371,123.491,3.577c0.04,0,0.08-0.04,0.121-0.04
		C258.344,71.537,260.152,86.366,260.755,92.112z M246.449,100.27c3.255-1.005,6.832-4.903,5.385-8.559
		c-0.281-0.723-1.326-0.844-1.567,0c-0.884,3.014-1.406,5.425-4.541,6.832C244.761,98.984,245.444,100.591,246.449,100.27z
		 M248.297,91.871c0.04-4.541,0.643-10.408-0.683-14.828c-0.563-1.728-0.603-2.009-2.291-2.612
		c-3.657-1.286-9.323-0.603-13.06-0.603c-4.34,0-8.64,0.241-12.9,0.884c-0.683,0.12-0.764,0.723-0.522,1.206
		c-0.603,0.161-1.125,0.643-1.005,1.487c0.482,4.059,0.482,8.801,1.527,12.779c0.522,1.849,0.884,2.25,2.733,2.733
		c3.175,0.804,7.193,0.241,10.488,0.281c4.702,0.12,9.403,0.201,14.105,0.281C247.534,93.479,248.297,92.715,248.297,91.871z
		 M200.316,126.511c0.563,0.924,2.009,0.12,1.447-0.844c-1.487-2.652-3.416-5.104-5.747-7.113c-0.723-0.603-1.648,0.322-1.045,1.045
		C196.94,121.809,198.708,124.06,200.316,126.511z M102.182,123.216c0.603-0.723-0.362-1.808-1.045-1.045
		c-2.652,2.893-4.501,6.51-4.943,10.448c-0.121,0.844,1.246,1.005,1.487,0.201C98.606,129.284,99.932,126.109,102.182,123.216z
		 M94.627,125.949c0.442-0.763-0.683-1.366-1.165-0.683c-2.572,3.697-3.978,7.876-3.777,12.417c0.08,1.005,1.567,1.005,1.607,0
		C91.453,133.503,92.417,129.525,94.627,125.949z M61.112,104.449c0.442-0.965-0.924-1.808-1.447-0.844
		c-1.406,2.492-2.13,5.063-2.25,7.917c-0.04,1.165,1.688,1.165,1.808,0C59.425,109.071,60.108,106.7,61.112,104.449z M16.868,76.801
		c0.563-0.763-0.603-1.567-1.246-0.964c-1.567,1.447-2.17,3.456-2.21,5.546c-0.04,0.964,1.326,0.924,1.406,0
		C15.019,79.574,15.823,78.248,16.868,76.801z M13.653,75.917c1.125-0.161,1.206-1.728,0-1.808
		c-1.889-0.121-3.134,1.085-3.818,2.773c-0.924,2.411,0.201,5.224-0.965,7.475c-0.281,0.563,0.563,1.045,0.844,0.482
		c0.723-1.205,1.125-2.532,1.286-3.898C11.202,79.213,11.363,76.199,13.653,75.917z"/>
	<path style="fill:#99D9D7;" d="M260.916,151.185c0,1.889,0,3.818,0,5.706c-20.012-1.768-40.588-1.286-60.52,0.804
		c-0.04-1.969-0.161-3.978-0.362-5.948c0.161,0.08,0.281,0.201,0.522,0.201c20.133-1.005,40.065-1.567,60.238-0.764
		C260.835,151.185,260.875,151.185,260.916,151.185z"/>
	<path style="fill:#1D1D1B;" d="M251.834,91.71c1.447,3.657-2.13,7.555-5.385,8.559c-1.005,0.322-1.688-1.286-0.723-1.728
		c3.134-1.407,3.657-3.818,4.541-6.832C250.508,90.866,251.552,90.987,251.834,91.71z"/>
	<path style="fill:#1D1D1B;" d="M247.614,77.043c1.326,4.42,0.723,10.288,0.683,14.828c0,0.844-0.764,1.607-1.607,1.607
		c-4.702-0.08-9.403-0.161-14.105-0.281c-3.295-0.04-7.314,0.522-10.488-0.281c-1.849-0.482-2.21-0.884-2.733-2.733
		c-1.045-3.978-1.045-8.72-1.527-12.779c-0.121-0.844,0.402-1.326,1.005-1.487c-0.241-0.482-0.161-1.085,0.522-1.206
		c4.26-0.643,8.559-0.884,12.9-0.884c3.737,0,9.403-0.683,13.06,0.603C247.011,75.033,247.052,75.315,247.614,77.043z
		 M245.123,90.183c0.12-2.934,0.322-6.189-0.241-8.921c-0.844-3.938-2.451-4.059-6.309-4.26c-5.947-0.241-11.935-0.201-17.883-0.482
		c0.201,0.241,0.362,0.522,0.402,0.884c0.362,2.813,0.201,6.751,1.165,9.403c1.286,3.456,4.059,2.893,7.314,2.974
		C234.755,89.902,239.939,90.063,245.123,90.183z"/>
	<path style="fill:#F6F6F6;" d="M244.882,81.262c0.563,2.733,0.362,5.988,0.241,8.921c-5.184-0.121-10.368-0.281-15.552-0.402
		c-3.255-0.08-6.028,0.482-7.314-2.974c-0.964-2.652-0.804-6.59-1.165-9.403c-0.04-0.362-0.201-0.643-0.402-0.884
		c5.948,0.281,11.935,0.241,17.883,0.482C242.43,77.203,244.038,77.324,244.882,81.262z"/>
	<path style="fill:#F49AC7;" d="M229.289,63.299c0,0.201,0.04,0.362,0.08,0.522l-14.788-0.402c0.201-3.576,2.049-7.153,5.747-8.118
		C225.231,53.976,229.531,58.638,229.289,63.299z"/>
	<path style="fill:#1D1D1B;" d="M204.816,182.168c0.161-0.844,1.607-0.643,1.527,0.201c-0.442,4.702-2.21,8.961-5.264,12.578
		c-0.362,0.402-1.085-0.161-0.804-0.643C202.606,190.527,204.053,186.549,204.816,182.168z"/>
	<path style="fill:#1D1D1B;" d="M201.762,125.667c0.563,0.964-0.884,1.768-1.447,0.844c-1.607-2.451-3.376-4.702-5.345-6.912
		c-0.603-0.723,0.321-1.648,1.045-1.045C198.347,120.564,200.275,123.015,201.762,125.667z"/>
	<path style="fill:#1D1D1B;" d="M199.271,184.7c0.683,4.179-1.929,8.881-5.023,11.493c-0.402,0.362-0.924-0.161-0.603-0.603
		c1.447-1.688,2.572-3.456,3.335-5.546c0.603-1.728,0.723-3.536,1.085-5.345C198.186,184.137,199.19,184.097,199.271,184.7z"/>
	<path style="fill:#99D9D7;" d="M196.217,151.748c1.165,9.645,0,19.49-3.496,28.21c-1.849-1.648-4.34-2.612-6.51-3.657
		c-2.049-1.005-4.099-2.009-6.189-2.974c1.848-3.778,3.054-7.997,3.456-12.538c0.201-2.652,0.161-5.224-0.161-7.756
		c4.219-0.522,8.439-0.884,12.699-1.246C196.096,151.788,196.136,151.748,196.217,151.748z"/>
	<path style="fill:#99D9D7;" d="M186.612,126.752c4.662,6.55,7.716,14.105,9.082,21.901c-4.26,0.161-8.64,1.005-12.699,2.331
		c-0.964-5.626-3.215-10.85-6.51-15.271c0.04,0,0.04,0,0.04,0c2.532-1.165,4.782-3.054,6.751-5.023
		C184.241,129.726,185.728,128.279,186.612,126.752z"/>
	<path style="fill:#99D9D7;" d="M184.764,178.793c2.17,1.246,4.461,2.893,6.952,3.456c-4.059,8.841-10.569,16.315-19.45,20.816
		c-0.683-2.451-2.009-4.903-3.094-7.153c-1.125-2.411-2.371-4.742-3.818-6.952c5.626-3.335,10.328-7.957,13.543-13.623
		C180.826,176.502,182.795,177.668,184.764,178.793z"/>
	<path style="fill:#99D9D7;" d="M184.643,124.1c-0.442,0.522-0.763,1.085-1.165,1.688c-0.764,1.085-1.607,2.13-2.492,3.134
		c-1.688,1.969-3.697,3.496-5.706,5.144c-0.04,0.04-0.04,0.04-0.04,0.04c-3.978-4.782-9.202-8.439-15.311-10.529
		c0.723-2.492,1.406-5.023,2.09-7.555c0.603-2.21,1.407-4.501,1.567-6.791C172.427,112.486,179.379,117.71,184.643,124.1z"/>
	<path style="fill:#99D9D7;" d="M180.102,156.972c0.563,19.45-16.516,33.354-34.841,34.359c-0.08,0-0.121,0.04-0.161,0.04
		c-13.382-5.626-24.754-15.632-26.281-30.863c-1.808-17.601,10.89-34.399,29.215-34.68
		C165.434,125.547,179.62,139.571,180.102,156.972z"/>
	<path style="fill:#F49AC7;" d="M179.781,62.415c-28.251-0.804-56.501-1.607-84.752-2.411c4.621-7.033,8.519-15.351,11.573-23.107
		c9.805,0.683,19.651,0.442,29.456,1.005c9.966,0.563,19.812,2.21,29.777,1.005c0.281-0.04,0.523-0.121,0.723-0.241
		C170.016,46.944,175.119,54.78,179.781,62.415z M170.779,54.619c0.482,0.683,1.407,0.121,1.085-0.643
		c-0.522-1.206-1.286-2.371-1.969-3.536c-0.402-0.643-1.406-0.08-1.045,0.643C169.453,52.248,170.056,53.494,170.779,54.619z
		 M147.391,49.314c0.362-2.049,1.005-4.501,0.201-6.43c-0.321-0.804-1.246-1.206-1.929-0.884c-0.281-0.402-0.723-0.723-1.407-0.683
		c-3.898,0.161-7.756,0.362-11.654,0.522c-2.17,0.08-5.063-0.281-7.073,0.723c-3.978,2.049-1.849,9.162-1.246,12.538
		c0.08,0.362,0.281,0.603,0.563,0.723c-0.321,0.563-0.08,1.407,0.804,1.487c5.706,0.563,11.895,0.844,17.601,0.321
		c0.844-0.12,1.286-0.723,1.286-1.366c0.322,0.04,0.683-0.04,0.844-0.442C146.386,53.775,147.029,51.565,147.391,49.314z
		 M113.675,42.804c0.723-0.804-0.321-1.808-1.125-1.125c-2.13,1.808-3.134,4.3-3.255,7.073c-0.04,1.005,1.447,0.965,1.527,0
		C111.063,46.461,112.148,44.492,113.675,42.804z M107.165,48.39c0.241-0.723-0.764-1.045-1.165-0.482
		c-1.125,1.688-1.929,3.536-2.773,5.385c-0.402,0.884,0.884,1.688,1.326,0.804C105.518,52.248,106.522,50.399,107.165,48.39z"/>
	<path style="fill:#1D1D1B;" d="M171.864,53.976c0.322,0.764-0.603,1.326-1.085,0.643c-0.723-1.125-1.326-2.371-1.929-3.536
		c-0.362-0.723,0.643-1.286,1.045-0.643C170.578,51.605,171.342,52.77,171.864,53.976z"/>
	<path style="fill:#99D9D7;" d="M166.037,196.233c1.125,2.652,2.009,5.666,3.416,8.198c-7.354,3.054-16.115,4.219-26.241,2.692
		c0.924-3.777,1.728-8.278,1.527-12.377c0.161,0.04,0.321,0.12,0.522,0.12c6.43-0.322,12.618-2.009,18.083-4.862
		C164.189,192.094,165.113,194.184,166.037,196.233z"/>
	<path style="fill:#99D9D7;" d="M161.054,108.387c-1.005,2.13-1.366,4.621-1.849,6.872c-0.522,2.572-0.964,5.104-1.366,7.675
		c-2.009-0.522-4.139-0.924-6.309-1.125c-5.144-0.402-10.006,0.402-14.427,2.09c-1.527-2.049-3.094-4.059-4.501-6.229
		c-1.567-2.492-2.572-5.385-4.26-7.796c0-0.04-0.04-0.04-0.04-0.04c7.555-3.576,16.356-4.943,25.96-3.175
		C156.634,107.101,158.884,107.704,161.054,108.387z"/>
	<path style="fill:#1D1D1B;" d="M147.592,42.885c0.804,1.929,0.161,4.38-0.201,6.43c-0.362,2.25-1.005,4.461-2.009,6.51
		c-0.161,0.402-0.522,0.482-0.844,0.442c0,0.643-0.442,1.246-1.286,1.366c-5.706,0.522-11.895,0.241-17.601-0.321
		c-0.884-0.08-1.125-0.924-0.804-1.487c-0.281-0.121-0.482-0.362-0.563-0.723c-0.603-3.376-2.733-10.488,1.246-12.538
		c2.009-1.005,4.903-0.643,7.073-0.723c3.898-0.161,7.756-0.362,11.654-0.522c0.683-0.04,1.125,0.281,1.407,0.683
		C146.346,41.679,147.271,42.081,147.592,42.885z M144.377,44.854c-0.04,0-0.08,0.04-0.121,0.04c-4.38,0.161-8.72,0.321-13.1,0.442
		c-2.893,0.121-4.461,0.522-4.461,3.697c0,1.929-0.04,3.818-0.121,5.747c0,0.161-0.121,0.281-0.201,0.402
		c5.505-0.482,11.413-0.764,16.878-0.241c0.161,0.04,0.201,0.121,0.322,0.161c0-2.21,0.281-4.461,0.522-6.711
		C144.216,47.225,144.216,46.019,144.377,44.854z"/>
	<path style="fill:#F6F6F6;" d="M144.257,44.894c0.04,0,0.08-0.04,0.121-0.04c-0.161,1.165-0.161,2.371-0.281,3.536
		c-0.241,2.25-0.522,4.501-0.522,6.711c-0.121-0.04-0.161-0.12-0.322-0.161c-5.465-0.522-11.373-0.241-16.878,0.241
		c0.08-0.121,0.201-0.241,0.201-0.402c0.08-1.929,0.121-3.818,0.121-5.747c0-3.175,1.567-3.576,4.461-3.697
		C135.536,45.216,139.876,45.055,144.257,44.894z"/>
	<path style="fill:#99D9D7;" d="M142.046,192.576c-0.241,2.17-0.161,4.38-0.241,6.55c-0.12,2.692-0.402,5.345-0.643,8.037
		c-0.362,0.161-0.643,0.442-0.804,0.804c-9.042-2.492-17.039-6.992-23.428-13.02c3.737-3.416,7.274-7.033,10.77-10.689
		c3.134,2.813,6.711,5.184,10.649,6.872C139.474,191.893,140.76,192.416,142.046,192.576z"/>
	<path style="fill:#99D9D7;" d="M126.093,110.999c0.884,4.943,4.903,10.368,8.961,13.743c-7.033,3.255-12.699,8.921-16.195,15.994
		c-2.291-1.366-4.943-2.291-7.354-3.335c-2.09-0.884-4.179-1.728-6.269-2.532C109.576,124.663,116.81,116.103,126.093,110.999z"/>
	<path style="fill:#99D9D7;" d="M125.57,182.208c-3.416,3.697-6.751,7.515-9.886,11.453c-5.907-5.947-10.368-13.181-12.819-21.499
		c2.371,0.241,4.782-0.12,7.113-0.442c2.492-0.362,5.264-0.764,7.595-1.849C119.382,174.453,122.154,178.632,125.57,182.208z"/>
	<path style="fill:#99D9D7;" d="M117.774,143.148c-1.326,3.255-2.25,6.671-2.612,10.328c-0.482,4.862,0.121,9.604,1.527,14.065
		c-2.09,0.281-4.179,1.005-6.269,1.447c-2.652,0.563-5.425,0.723-8.037,1.447c-0.804-3.215-1.246-6.59-1.447-10.046
		c0.04-0.402,0.04-0.804-0.08-1.165c-0.04-0.563-0.12-1.085-0.12-1.648c-0.04-1.286,0.04-2.612,0.12-3.898
		c0.482-0.563,0.522-1.487,0.161-2.17c0.482-5.063,1.648-10.046,3.416-14.668c2.291,1.085,4.621,2.17,6.912,3.255
		C113.474,141.139,115.564,142.344,117.774,143.148z"/>
	<path style="fill:#1D1D1B;" d="M112.55,41.679c0.804-0.683,1.849,0.322,1.125,1.125c-1.527,1.688-2.612,3.657-2.853,5.947
		c-0.08,0.965-1.567,1.005-1.527,0C109.416,45.979,110.42,43.488,112.55,41.679z"/>
	<path style="fill:#1D1D1B;" d="M108.411,195.309c0.683,0.281,0.201,1.366-0.482,1.165c-3.697-1.165-6.309-4.059-7.354-7.796
		c-0.241-0.844,1.045-1.205,1.326-0.362C102.906,191.572,105.317,193.983,108.411,195.309z"/>
	<path style="fill:#1D1D1B;" d="M106,47.908c0.402-0.563,1.407-0.241,1.165,0.482c-0.643,2.009-1.648,3.858-2.612,5.706
		c-0.442,0.884-1.728,0.08-1.326-0.804C104.071,51.444,104.875,49.596,106,47.908z"/>
	<path style="fill:#1D1D1B;" d="M101.137,122.171c0.683-0.764,1.648,0.321,1.045,1.045c-2.25,2.893-3.576,6.068-4.501,9.604
		c-0.241,0.804-1.607,0.643-1.487-0.201C96.637,128.681,98.485,125.064,101.137,122.171z"/>
	<path style="fill:#99D9D7;" d="M98.565,154.159c-0.04,1.286-0.121,2.532-0.08,3.818c-31.385-0.603-62.891-0.362-94.195,2.009
		c-0.08-2.974-0.12-5.907-0.161-8.881C35.595,152.109,67.1,152.913,98.565,154.159z"/>
	<path style="fill:#1D1D1B;" d="M93.462,125.265c0.482-0.683,1.608-0.08,1.165,0.683c-2.21,3.577-3.175,7.555-3.335,11.734
		c-0.04,1.005-1.527,1.005-1.607,0C89.484,133.142,90.89,128.962,93.462,125.265z"/>
	<path style="fill:#F49AC7;" d="M69.993,51.645c-0.362,2.291-0.442,4.862-0.04,7.113c-14.628-1.206-30.662-3.014-44.485-1.165
		c0.121-1.607,0.241-3.255,0.563-4.862c0.201-1.045,0.563-1.929,0.563-2.893C41.1,52.328,55.406,50.641,69.993,51.645z"/>
	<path style="fill:#1D1D1B;" d="M69.551,194.385c0.402,0.402-0.121,1.045-0.603,0.764c-1.607-0.884-2.451-2.371-2.893-4.139
		c-0.161-0.683,0.844-0.924,1.045-0.281C67.542,192.215,68.466,193.3,69.551,194.385z"/>
	<path style="fill:#1D1D1B;" d="M59.666,103.605c0.522-0.965,1.889-0.121,1.447,0.844c-1.005,2.25-1.688,4.621-1.889,7.073
		c-0.121,1.165-1.849,1.165-1.808,0C57.536,108.669,58.259,106.097,59.666,103.605z"/>
	<path style="fill:#1D1D1B;" d="M26.593,216.406c0.643,0.522,0.04,1.607-0.683,1.125c-2.532-1.648-4.139-3.898-4.983-6.831
		c-0.241-0.804,0.965-1.085,1.246-0.322C22.976,212.79,24.543,214.879,26.593,216.406z"/>
	<path style="fill:#1D1D1B;" d="M20.043,216.929c0.723,0.442,0.08,1.447-0.683,1.125c-3.054-1.366-5.505-4.742-4.501-8.198
		c0.08-0.362,0.643-0.362,0.763,0C16.305,212.75,17.39,215.281,20.043,216.929z"/>
	<path style="fill:#1D1D1B;" d="M15.622,75.837c0.643-0.603,1.808,0.201,1.246,0.964c-1.045,1.447-1.849,2.773-2.05,4.581
		c-0.08,0.924-1.447,0.964-1.406,0C13.452,79.293,14.055,77.284,15.622,75.837z"/>
	<path style="fill:#1D1D1B;" d="M13.653,74.109c1.206,0.08,1.125,1.648,0,1.808c-2.291,0.281-2.451,3.295-2.652,5.023
		c-0.161,1.366-0.563,2.693-1.286,3.898c-0.281,0.563-1.125,0.08-0.844-0.482c1.165-2.25,0.04-5.063,0.965-7.475
		C10.519,75.194,11.764,73.988,13.653,74.109z"/>
</g>
<g>
</g>
<g>
</g>
<g>
</g>
<g>
</g>
<g>
</g>
<g>
</g>
<g>
</g>
<g>
</g>
<g>
</g>
<g>
</g>
<g>
</g>
<g>
</g>
<g>
</g>
<g>
</g>
<g>
</g>
</svg>
